<svg width="1311" height="649" viewBox="0 0 1311 649" fill="none" xmlns="http://www.w3.org/2000/svg">
<path d="M699.281 195.69C699.281 133.52 747.021 89.02 811.251 89.02C846.911 89.02 876.661 101.99 896.111 125.56L865.461 153.85C851.611 137.94 834.231 129.69 813.601 129.69C775.001 129.69 747.591 156.8 747.591 195.7C747.591 234.6 774.991 261.7 813.601 261.7C834.231 261.7 851.611 253.45 865.461 237.25L896.111 265.54C876.661 289.41 846.901 302.37 810.951 302.37C747.011 302.36 699.281 257.86 699.281 195.69Z" fill="#201747"/>
<path d="M920.289 278.49L936.499 242.54C953.889 255.21 979.819 264.05 1004.57 264.05C1032.86 264.05 1044.35 254.62 1044.35 241.95C1044.35 203.35 924.429 229.87 924.429 153.26C924.429 118.19 952.719 89.02 1011.35 89.02C1037.28 89.02 1063.8 95.21 1082.96 107.29L1068.23 143.53C1049.07 132.63 1029.33 127.32 1011.06 127.32C982.769 127.32 971.869 137.93 971.869 150.89C971.869 188.9 1091.8 162.68 1091.8 238.4C1091.8 272.88 1063.22 302.34 1004.29 302.34C971.559 302.36 938.559 292.63 920.289 278.49Z" fill="#201747"/>
<path d="M1119.49 92.5601H1196.48C1263.96 92.5601 1310.22 133.22 1310.22 195.69C1310.22 258.16 1263.96 298.82 1196.48 298.82H1119.49V92.5601ZM1194.13 259.63C1235.09 259.63 1261.9 235.17 1261.9 195.69C1261.9 156.21 1235.08 131.75 1194.13 131.75H1167.23V259.63H1194.13Z" fill="#201747"/>
<path d="M324.3 648.6C503.406 648.6 648.6 503.406 648.6 324.3C648.6 145.194 503.406 0 324.3 0C145.194 0 0 145.194 0 324.3C0 503.406 145.194 648.6 324.3 648.6Z" fill="#89DC65"/>
<path d="M461.889 358.31C461.889 296.28 421.109 243.62 364.969 225.65C363.669 225.23 362.369 224.82 361.049 224.44C360.619 224.32 360.179 224.21 359.749 224.1L409.189 146.55L378.809 127.46L313.049 230.8L309.329 236.72L274.719 291.78L267.879 287.48L260.579 282.89L253.979 278.74L358.069 114.41L327.689 95.3198L223.609 259.66L216.769 255.36L202.079 246.13L182.989 276.5L306.109 353.89L325.199 323.52L311.699 315.04L305.089 310.89L322.589 283.05L324.919 279.35L327.279 275.59L339.349 256.39C339.829 256.49 340.319 256.57 340.799 256.66C342.199 256.91 343.609 257.14 344.989 257.45C391.269 267.71 426.009 309.01 426.009 358.34C426.009 415.35 379.619 461.74 322.609 461.74C293.859 461.74 266.929 449.56 247.749 429.4C246.529 428.12 245.379 426.77 244.229 425.43C243.119 424.13 242.029 422.81 240.979 421.46H246.039H251.259H278.889V385.58H155.039V421.46H189.719H194.189H198.539C199.219 422.8 199.909 424.12 200.619 425.43C201.349 426.76 202.069 428.1 202.839 429.4C226.489 469.37 269.079 495.51 317.089 497.39C317.589 497.41 318.089 497.42 318.589 497.45H241.869V533.3H402.169V497.42H328.259C328.959 497.39 329.669 497.4 330.359 497.36C403.579 493.33 461.889 432.51 461.889 358.31Z" fill="#201747"/>
<path d="M712.641 354.3H742.131V535.06H853.891V560.71H712.641V354.3Z" fill="#201747"/>
<path d="M1041.25 509.11H931.549L908.839 560.71H878.469L971.939 354.29H1001.14L1094.91 560.71H1063.95L1041.25 509.11ZM1030.92 485.52L986.389 384.37L941.859 485.52H1030.92Z" fill="#201747"/>
<path d="M1310.38 504.98C1310.38 540.37 1283.55 560.71 1231.35 560.71H1119.49V354.3H1225.45C1272.92 354.3 1299.46 374.35 1299.46 407.67C1299.46 430.08 1287.96 445.71 1271.74 453.67C1295.04 460.16 1310.38 477.56 1310.38 504.98ZM1148.98 378.19V444.24H1222.8C1252.88 444.24 1269.98 433.03 1269.98 411.21C1269.98 389.39 1252.88 378.18 1222.8 378.18H1148.98V378.19ZM1280.59 502.63C1280.59 478.74 1262.9 468.13 1230.17 468.13H1148.98V536.84H1230.17C1262.9 536.83 1280.59 526.51 1280.59 502.63Z" fill="#201747"/>
</svg>
