<?xml version="1.0" encoding="utf-8"?>
<!-- Generator: Adobe Illustrator 26.3.1, SVG Export Plug-In . SVG Version: 6.00 Build 0)  -->
<svg version="1.1" id="Layer_1" xmlns="http://www.w3.org/2000/svg" xmlns:xlink="http://www.w3.org/1999/xlink" x="0px" y="0px"
	 viewBox="0 0 2155.5 1251" style="enable-background:new 0 0 2155.5 1251;" xml:space="preserve">
<style type="text/css">
	.st0{fill:#005092;}
	.st1{fill:#B30931;}
	.st2{fill:#FFFFFF;}
	.st3{fill:#00A2FF;}
</style>
<g>
	<g>
		<g>
			<path class="st0" d="M1837.2,802.1c0,13.3-11.8,24.2-26.1,24.2h-37.3c-14.3,0-27.4-0.3-28.9-0.6c-1.5-0.3-4.1-1.1-6-1.8
				c-1.8-0.7-3.6-1.2-4-1.2c-0.3,0-1.6-0.3-2.7-0.6c-1.1-0.4-3.4-1.2-5.4-1.9c-1.8-0.7-4.5-1.8-5.9-2.5c-1.5-0.7-3.9-1.8-5.4-2.4
				c-1.5-0.8-3.9-2.1-5.3-3.2c-1.4-1.1-3.8-2.4-5.4-3.1c-1.5-0.6-3.9-2-5.3-3.1c-1.6-1.1-3.9-2.6-5.4-3.7c-1.4-1-3.9-2.6-5.4-3.7
				c-1.5-1.1-3.5-2.6-4.6-3.7c-1.1-1-3.2-2.6-4.8-3.7c-1.4-0.9-3.4-2.7-4.6-3.6c-1.2-1-3-3-4.1-4.4c-1.1-1.3-2.9-3.3-3.9-4.3
				c-1.2-1-3-2.9-4.1-4.4c-1.1-1.4-2.6-3.5-3.3-4.9c-0.7-1.4-2.3-3.6-3.3-5c-1.1-1.3-2.6-3.6-3.5-4.9c-0.7-1.4-2.1-3.6-3.3-4.9
				c-1.1-1.3-2.6-3.5-3.4-4.9c-0.7-1.4-1.8-3.9-2.7-5.6c-0.7-1.7-1.6-4.2-2-5.6c-0.4-1.4-1.3-3.9-2-5.5c-0.7-1.7-1.6-4.2-2-5.6
				c-0.4-1.3-1-3.9-1.4-5.6c-0.3-1.7-0.9-4.5-1.3-6.2c-0.4-1.7-1-4.4-1.4-6.1c-0.3-1.7-0.6-4.2-0.6-5.6c0-1.3-0.3-3.9-0.7-5.6
				c-0.4-1.8-0.7-4.5-0.7-6.2v-6.8c0-2.1,0.3-4.9,0.7-6.2c0.4-1.4,0.7-3.9,0.7-5.6c0-1.7,0.3-4.5,0.6-6.2c0.3-1.8,0.9-4.5,1.4-6.2
				c0.4-1.6,1-4.5,1.3-6.2c0.4-1.8,1-4.3,1.4-5.6c0.4-1.4,1.3-3.9,2-5.5c0.7-1.7,1.6-4.3,2-5.6c0.4-1.4,1.3-3.6,2-5
				c0.9-1.4,2-3.8,2.7-5.6c0.8-1.7,2.3-4.2,3.4-5.5c1.1-1.4,2.5-3.6,3.3-5c0.8-1.3,2.4-3.6,3.5-4.9c1.1-1.4,2.6-3.7,3.3-4.9
				c0.7-1.4,2.2-3.4,3.3-4.4c1.1-1,2.9-3,4.1-4.4c1.1-1.3,2.8-3.5,3.9-4.9c1.1-1.3,2.9-3.2,4.1-4.2c1.1-1.1,3.2-2.7,4.6-3.7
				c1.5-1.1,3.7-2.7,4.8-3.7c1.1-1,3.2-2.7,4.6-3.8c1.5-1,4-2.7,5.4-3.6c1.5-1.1,3.8-2.8,5.4-3.8c1.4-1.1,3.9-2.4,5.3-3.1
				c1.6-0.6,3.9-1.8,5.4-2.4c1.4-0.7,3.8-2.1,5.3-3.1c1.5-1,3.8-2.1,5.4-2.5c1.5-0.4,4.1-1.2,5.9-1.8c2-0.7,4.3-1.8,5.4-2.5
				c1.1-0.7,2.4-1.3,2.7-1.3c0.4,0,2.2-0.5,4-1.3c1.9-0.6,4.5-1.4,6-1.8c1.5-0.3,14.5-0.6,28.9-0.6h37.3c14.4,0,26.1,10.9,26.1,24.2
				V802.1z M2000.8,360.4H1904H1846h-57.7h-29.7h-2.3h-2.9h-3.8h-3.7h-3h-3.7h-3.7h-2.9h-9.7c-4.5,0-11.8,0.4-16.3,0.8
				c-4.6,0.4-11.9,1-16.4,1.5c-4.4,0.5-11.8,1.4-16.3,2.3c-4.5,0.8-11.5,2.4-15.6,3.7c-4.1,1.2-11.1,3.3-15.5,4.4
				c-4.5,1.2-11.5,3.2-15.5,4.4c-4.2,1.2-10.8,3.5-14.9,5.2c-4,1.6-10.4,4.3-14,5.9c-3.5,1.6-10,4.6-14.1,6.7
				c-3.9,2-10.4,5.3-14,7.4c-3.5,2-9.6,5.7-13.3,8.2c-3.7,2.4-9.3,6.5-12.6,8.9c-3.3,2.4-8.9,6.7-12.6,9.7
				c-3.6,2.8-9.3,7.2-12.6,9.6c-3.2,2.4-8.2,7.1-11.1,10.5c-2.8,3.2-7.5,8.2-10.4,11.1c-2.8,2.8-7.4,7.8-10.4,11.1
				c-2.8,3.3-7.5,8.6-10.3,11.9c-2.9,3.2-7.1,8.8-9.6,12.5c-2.5,3.7-6.1,9.7-8.2,13.3c-2,3.7-5.6,9.7-8.1,13.4
				c-2.5,3.7-5.8,9.7-7.5,13.4c-1.7,3.6-4.7,10-6.6,14c-2,4.1-5.1,10.7-6.7,14.8c-1.7,4-3.9,10.7-5.1,14.8c-1.2,4-3.2,10.7-4.5,14.8
				c-1.2,4.1-3.1,10.6-4.1,14.3c-1,3.8-5.4-5.7-9.8-21l-56-195.2c-4.4-15.3-16.3-27.9-26.4-27.9h-47.5h-42.8h-48.3
				c-10.5,0-22.8,12.6-27.3,27.9L1055.9,751c-4.3,15.3-8,14.8-8-1.1V395.3c0-15.9-13-28.9-29-28.9H863.5c0,0-13.9-0.5-21.4,6.7
				c-12.1,11.7-8.3,20.5-9.1,18.7c-0.8-1.7-3.5-7.6-5.9-12.9c-2.4-5.3-6.7-13.6-9.6-18.5c-2.9-4.9-7.5-12.9-10.4-17.8
				c-2.9-4.9-7.5-12.6-10.4-17c-2.8-4.5-7.8-11.8-11.1-16.3c-3.3-4.5-8.9-11.9-12.5-16.4c-3.8-4.5-9.8-11.5-13.4-15.6
				c-3.8-4.1-10-10.4-14.1-14c-4-3.7-10.4-10-14-14.1c-3.7-4.1-10.4-10.1-14.9-13.3c-4.4-3.2-11.4-8.6-15.5-11.9
				c-4.1-3.2-11-8.6-15.6-11.9c-4.4-3.2-12.2-8.2-17-11c-4.9-2.9-13-7.2-17.8-9.7c-5-2.4-12.9-6.4-17.8-8.8
				c-4.9-2.5-12.9-6.1-17.8-8.2c-4.9-2-13.2-5.3-18.6-7.4c-5.3-2-13.9-5-19.2-6.6c-5.2-1.7-14-3.9-19.3-5.1
				c-5.3-1.2-14-3.3-19.3-4.5c-5.3-1.2-14.2-2.9-20-3.7c-5.7-0.8-15.1-1.8-20.8-2.2c-5.6-0.4-59.4-1.3-60.6-1.3h-31.2h-90.4h-57.9
				H108.4c-16,0-29.8,15.1-29.8,31v801.7c0,15.9,13,29.1,29.1,29.1h149.5H315h93.3c15.9,0,84.1-0.4,89.7-0.8
				c5.7-0.4,15.1-1.4,20.8-2.2c5.8-0.9,14.8-2.2,20-3c5.3-0.8,14-2.8,19.3-4.4c5.3-1.6,14-4.3,19.3-6c5.3-1.7,14-4.3,19.2-5.9
				c5.3-1.6,13.7-5,18.6-7.4c4.9-2.5,12.9-6.2,17.8-8.1c4.9-2,12.8-6.1,17.8-8.9c4.9-2.8,12.9-7.6,17.8-10.4
				c4.8-2.9,12.6-7.6,17-10.4c4.5-2.9,11.4-7.9,15.6-11.2c4.1-3.2,11-8.9,15.5-12.6c4.6-3.6,11.2-9.6,14.9-13.3
				c3.6-3.7,10-10,14-14.1c4.1-4.1,10.3-10.7,14.1-14.8c3.6-4.2,9.6-11.1,13.4-15.6c3.6-4.5,9.3-11.5,12.5-15.6
				c3.3-4.1,8.2-11.4,11.1-16.3c2.9-4.9,7.5-13,10.4-17.8c2.9-4.9,7.6-12.9,10.4-17.8c2.9-4.9,7.2-12.9,9.6-17.8
				c2.4-4.9,5.1-10.4,5.9-12.2c0.8-1.8,1.5,9.8,1.5,25.7v193.1c0,16,13,29,29,29H1019c16,0,147.4,0.1,147.4,0.1
				c15.9-0.1,30.6-14.5,33.4-30.1l50.6-282.3c2.9-15.7,7.4-15.7,10.1,0l49.3,282.3c2.7,15.7,18,28.6,33.9,28.8l155,1.4
				c15.9,0.1,24.5-12.6,20-28l-13.2-46c-4.4-15.3-6.8-26.6-5.3-25.1c1.5,1.5,5,5.4,7.9,8.6c2.9,3.3,7.9,8.2,11.1,11.1
				c3.3,2.9,9,7.2,12.6,9.7c3.7,2.4,9.3,6.4,12.6,8.9c3.3,2.5,8.9,6.4,12.6,8.9c3.7,2.5,9.8,6.1,13.3,8.2c3.6,2,10.1,5.4,14,7.4
				c4.1,2.1,10.6,5,14.1,6.7c3.7,1.6,10,4.3,14,5.9c4.1,1.7,10.7,4.3,14.9,5.9c4,1.7,11,4,15.5,5.2c4.5,1.2,11.4,2.9,15.5,3.7
				c4.1,0.8,11.1,2.2,15.6,3c4.5,0.8,11.8,1.9,16.3,2.2c4.5,0.4,11.8,1,16.4,1.4c4.5,0.3,12.4,0.8,17.8,0.8h11h2.9h3h3h3h2.9h3h3.6
				h31.2h57.7h57.9h96.9c15.9,0,28.9-13.2,28.9-29.1V389.4C2029.8,373.5,2016.8,360.4,2000.8,360.4"/>
			<path class="st1" d="M78.6,1057.6c0,9.7,7.9,17.6,17.6,17.6h1919c9.7,0,17.6-7.9,17.6-17.6c0-9.8-7.9-17.7-17.6-17.7H96.2
				C86.5,1039.9,78.6,1047.8,78.6,1057.6C78.6,1057.6,78.6,1047.8,78.6,1057.6"/>
			<path class="st0" d="M2075.1,274.3v14.2h7c3.9,0,6.6-0.7,7.8-1.9c1.2-1.4,1.9-3.1,1.9-5.2c0-2.3-0.6-4-1.8-5.3
				c-1.2-1.2-3.4-1.8-6.7-1.8L2075.1,274.3L2075.1,274.3L2075.1,274.3L2075.1,274.3z M2066.9,318.4v-50.7h19.2c1.9,0,3.8,0.4,6,1
				c2.2,0.6,4.1,2,5.9,4c1.7,2,2.5,4.9,2.5,8.5c0,2.8-0.7,5.2-2,7.2c-1.3,2-3,3.6-5,4.7c-2,1.1-4.1,1.6-6.1,1.6h-1.1l16,23.6h-9.5
				l-15.5-23.3h-2.2v23.3L2066.9,318.4L2066.9,318.4L2066.9,318.4z M2046.2,293c0,6.6,1.6,12.6,4.8,18.2c3.3,5.7,7.8,10.2,13.4,13.5
				c5.7,3.4,11.8,5,18.4,5c6.5,0,12.7-1.6,18.2-4.9c5.7-3.3,10.2-7.7,13.5-13.3c3.3-5.6,5-11.8,5-18.5c0-6.6-1.7-12.8-5-18.4
				c-3.3-5.7-7.8-10.1-13.5-13.3c-5.5-3.3-11.7-4.9-18.2-4.9c-6.6,0-12.8,1.7-18.4,5c-5.6,3.3-10.1,7.8-13.4,13.4
				C2047.8,280.5,2046.2,286.5,2046.2,293 M2039.7,293c0-7.8,2-15,5.8-21.7c4-6.6,9.2-11.9,15.9-15.7c6.6-3.8,13.8-5.7,21.5-5.7
				c5.7,0,11.2,1.1,16.5,3.3c5.2,2.3,9.9,5.4,13.9,9.3c4,4,7.2,8.6,9.4,13.9c2.3,5.3,3.4,10.8,3.4,16.7c0,6-1.1,11.6-3.4,16.9
				c-2.2,5.2-5.4,9.8-9.4,13.8c-4,4-8.7,7.1-13.9,9.2c-5.3,2.2-10.8,3.3-16.5,3.3c-7.7,0-14.8-1.9-21.5-5.8
				c-6.7-3.8-11.9-9.1-15.9-15.7C2041.6,308.1,2039.7,300.9,2039.7,293"/>
		</g>
		<polygon class="st0" points="152.8,1107.9 140.6,1153.1 128.1,1107.9 93.2,1107.9 82.1,1187.2 113,1187.2 116.7,1145.9 
			128.6,1187.2 152.5,1187.2 164.5,1145.9 168.1,1187.2 198.9,1187.2 187.8,1107.9 		"/>
		<polygon class="st0" points="227,1107.9 227,1187.2 282.6,1187.2 282.6,1164.2 258.7,1164.2 258.7,1156.6 280.2,1156.6 
			280.2,1137.5 258.7,1137.5 258.7,1130.8 282.6,1130.8 282.6,1107.9 		"/>
		<g>
			<path class="st0" d="M351.1,1130.8v11.2c0,6.1-0.7,10.9-1.9,14.3c-1.3,3.4-3.1,6-5.4,7.9h16.8v-33.4H351.1z M322.5,1107.8h69.9
				v56.4h9.5v38.8h-27v-15.9h-41.3v15.9h-27v-38.8c4.7-0.2,8.3-1.8,10.6-4.7c2.3-2.9,3.8-6,4.4-9.5c0.6-3.5,0.9-7.3,0.9-11.4
				L322.5,1107.8L322.5,1107.8L322.5,1107.8z"/>
		</g>
		<polygon class="st0" points="481.5,1107.9 459.3,1147.4 459.3,1107.9 429.1,1107.9 429.1,1187.2 457.7,1187.2 479.9,1149.1 
			479.9,1187.2 510.2,1187.2 510.2,1107.9 		"/>
		<g>
			<path class="st0" d="M585.7,1187.2v-27.8c-3.6,0.6-6.3,1-8.1,1.2c-1.9,0.2-4.1,0.2-6.7,0.2c-7.1,0-12.6-0.8-16.7-2.4
				c-4.2-1.5-7.1-3.6-8.9-6.1c-1.8-2.6-2.9-5.2-3.3-8c-0.5-2.8-0.7-6.2-0.7-10.3v-26.2h31.8v18c0,3.3,0.3,6.1,1,8.2
				c0.6,2.2,2.2,3.4,4.7,3.7h2.2c0.6-0.1,1.4-0.1,2.2-0.2c0.9-0.1,1.7-0.2,2.5-0.3v-29.3h31.8v79.4L585.7,1187.2L585.7,1187.2z"/>
		</g>
		<polygon class="st0" points="698.8,1107.9 698.8,1135.2 682.9,1135.2 682.9,1107.9 651.1,1107.9 651.1,1187.2 682.9,1187.2 
			682.9,1158.2 698.8,1158.2 698.8,1187.2 730.6,1187.2 730.6,1107.9 		"/>
		<path class="st0" d="M801.9,1135.6l5.5,20.2h-11L801.9,1135.6z M784.4,1107.9l-28.2,79.4h32.5l3.2-11.6h19.9l3.2,11.6h32.6
			l-28.2-79.4H784.4z"/>
		<g>
			<path class="st0" d="M940.9,1107.8h73.1v79.4h-31.8v-56.4h-12.7v29.7c0,3.7-0.2,7-0.7,9.9c-0.6,2.8-1.9,5.7-3.9,8.5
				c-2,2.7-5.3,5-9.8,6.8c-4.5,1.8-10.5,2.7-18.1,2.7c-3.6,0-7.6-0.5-11.9-1.3V1165c1.8,0.5,3.4,0.8,5,0.8c3.3,0,5.8-0.8,7.4-2.5
				c1.6-1.6,2.5-3.6,2.9-5.9c0.3-2.3,0.5-5.3,0.5-9C940.9,1148.4,940.9,1107.8,940.9,1107.8z"/>
		</g>
		<path class="st0" d="M1085.3,1135.6l5.5,20.2h-11L1085.3,1135.6z M1067.9,1107.9l-28.2,79.4h32.5l3.2-11.6h19.8l3.2,11.6h32.5
			l-28.1-79.4H1067.9z"/>
		<g>
			<path class="st0" d="M1188.4,1168.2h3c5.3,0,7.9-2,7.9-6c0-4-2.6-5.9-7.9-5.9h-3V1168.2z M1156.6,1187.2v-79.4h65.9v23h-34.1v7.1
				h10.9c7.8,0,14.8,1.6,21.3,4.6c6.5,3.1,9.7,9.6,9.7,19.5c0,4-0.8,7.9-2.3,11.6c-1.6,3.7-4.7,6.9-9.3,9.5
				c-4.7,2.6-11.1,3.9-19.4,3.9L1156.6,1187.2L1156.6,1187.2L1156.6,1187.2z"/>
			<path class="st0" d="M1302.5,1164.2c4.5,0,8.2-1.6,11.2-4.6c2.9-3,4.4-7,4.4-12.1c0-5-1.5-9.1-4.4-12.1c-2.9-3-6.6-4.5-11.2-4.5
				c-3.1,0-5.8,0.7-8.1,2.1c-2.3,1.4-4.3,3.3-5.5,5.8c-1.3,2.5-2,5.4-2,8.7c0,3.3,0.7,6.2,2,8.7c1.3,2.5,3.2,4.5,5.5,5.9
				C1296.7,1163.5,1299.4,1164.2,1302.5,1164.2 M1302.5,1189.6c-6.9,0-13.3-1-19-3.1c-5.7-2-10.6-5-14.6-8.8
				c-4.1-3.8-7.1-8.3-9.3-13.5c-2.1-5.1-3.2-10.7-3.2-16.7c0-5.9,1-11.6,3.2-16.7c2.1-5.1,5.2-9.6,9.3-13.4c4-3.8,8.9-6.7,14.6-8.8
				c5.7-2.1,12-3.1,19-3.1c7,0,13.3,1,19,3.1c5.7,2.1,10.5,5,14.6,8.8c4,3.8,7,8.3,9.2,13.4c2.2,5.2,3.2,10.8,3.2,16.7
				c0,6-1.1,11.6-3.2,16.7c-2.2,5.2-5.2,9.7-9.2,13.5c-4,3.8-8.9,6.8-14.6,8.8C1315.7,1188.6,1309.4,1189.6,1302.5,1189.6"/>
			<path class="st0" d="M1410.2,1128.5v13.5h3.5c5,0,7.5-2.3,7.5-6.8c0-4.5-2.5-6.7-7.5-6.7L1410.2,1128.5L1410.2,1128.5z
				 M1378.5,1187.2v-79.4h41.4c7.4,0,13.4,1.3,18.2,3.8c4.7,2.5,8.2,5.9,10.3,10c2.2,4.2,3.2,8.6,3.2,13.5c0,4.9-1,9.4-3.2,13.5
				c-2.1,4.1-5.6,7.5-10.3,10.1c-4.7,2.6-10.8,3.9-18.1,3.9h-9.6v24.6L1378.5,1187.2L1378.5,1187.2z"/>
		</g>
		<path class="st0" d="M1518.9,1135.6l5.5,20.2h-11L1518.9,1135.6z M1501.5,1107.9l-28.3,79.4h32.5l3.2-11.6h19.8l3.1,11.6h32.5
			l-28-79.4H1501.5z"/>
		<polygon class="st0" points="1583.8,1107.9 1583.8,1130.8 1600.5,1130.8 1600.5,1187.2 1632.3,1187.2 1632.3,1130.8 
			1648.9,1130.8 1648.9,1107.9 		"/>
		<g>
			<path class="st0" d="M1718.7,1164.2c4.5,0,8.2-1.6,11.2-4.6c2.9-3,4.4-7,4.4-12.1c0-5-1.5-9.1-4.4-12.1c-2.9-3-6.6-4.5-11.2-4.5
				c-3.1,0-5.8,0.7-8.1,2.1c-2.3,1.4-4.3,3.3-5.5,5.8c-1.4,2.5-2,5.4-2,8.7c0,3.3,0.6,6.2,2,8.7c1.3,2.5,3.2,4.5,5.5,5.9
				C1712.9,1163.5,1715.6,1164.2,1718.7,1164.2 M1718.7,1189.6c-6.9,0-13.2-1-19-3.1c-5.7-2-10.6-5-14.6-8.8
				c-4.1-3.8-7.2-8.3-9.3-13.5c-2.1-5.1-3.2-10.7-3.2-16.7c0-5.9,1.1-11.6,3.2-16.7c2.1-5.1,5.2-9.6,9.3-13.4
				c4-3.8,8.9-6.7,14.6-8.8c5.6-2.1,12-3.1,19-3.1c7,0,13.3,1,19,3.1c5.7,2.1,10.6,5,14.6,8.8c4,3.8,7.1,8.3,9.2,13.4
				c2.1,5.2,3.2,10.8,3.2,16.7c0,6-1.1,11.6-3.2,16.7c-2.2,5.2-5.2,9.7-9.2,13.5c-4,3.8-8.9,6.8-14.6,8.8
				C1731.9,1188.6,1725.6,1189.6,1718.7,1189.6"/>
			<path class="st0" d="M1826.4,1128.5v13.5h3.5c5,0,7.6-2.3,7.6-6.8c0-4.5-2.6-6.7-7.6-6.7L1826.4,1128.5L1826.4,1128.5z
				 M1794.7,1187.2v-79.4h41.4c7.4,0,13.4,1.3,18.2,3.8c4.7,2.5,8.1,5.9,10.3,10c2.1,4.2,3.2,8.6,3.2,13.5c0,4.9-1.1,9.4-3.2,13.5
				c-2.1,4.1-5.5,7.5-10.3,10.1c-4.8,2.6-10.8,3.9-18.2,3.9h-9.6v24.6L1794.7,1187.2L1794.7,1187.2z"/>
		</g>
		<rect x="1897.3" y="1107.9" class="st0" width="31.8" height="79.4"/>
		<g>
			<path class="st0" d="M2001.5,1143.5v-15.1h-3.2c-6.1,0-9.1,2.5-9.1,7.5c0,5,3,7.6,9.1,7.6H2001.5z M1957.2,1187.2l18-28.7
				c-2.7-0.8-5.3-2.2-7.8-4c-2.3-1.8-4.5-4.4-6.1-7.6c-1.6-3.2-2.4-7.2-2.4-11.7c0-7.9,2.7-14.5,8.1-19.7c5.4-5.1,14-7.8,25.9-7.8
				h40.3v79.4h-31.8V1165l-9.5,22.3L1957.2,1187.2L1957.2,1187.2L1957.2,1187.2z"/>
			<path class="st1" d="M1076.9,198.1c0,77-62.4,139.4-139.4,139.4c-77,0-139.3-62.4-139.3-139.4c0-77,62.4-139.4,139.3-139.4
				C1014.5,58.8,1076.9,121.1,1076.9,198.1"/>
		</g>
	</g>
	<path class="st2" d="M717.1,579c-6.4-16.8-15.7-31.9-28-45.3c-12.2-13.3-26.5-24-42.8-31.6c-16.3-7.8-33.9-12.3-53.1-13.5
		c-19.2-1.2-38.9,1.9-59,9.5c-4.9,1.9-10.1,4-15.4,6.5c-5.2,2.5-10.1,5.1-14.6,7.9L492,469.1l129.1-49c4.1-1.6,6.9-4.1,8.2-7.6
		c1.3-3.5,1.2-7-0.1-10.5c-4-10.6-7.9-21-11.7-31.3c-3.8-10.2-7.8-20.7-11.8-31.2c-3.3-8.8-9.2-11.5-17.6-8.3l-21,8
		c-0.5,0.2-1,0.2-1.3,0.2c-0.5,0-0.9,0-1.1,0.1l-174.6,66.3c-5,1.9-7.8,4.8-8.7,8.8c-6.9-3.9-14-7.3-21.6-9.9
		c-16.4-5.7-34-8.2-52.5-7.7c-18.6,0.6-36.8,4.3-54.8,11.1c-17.6,6.7-33,16-46.2,28c-13.2,12.1-23.6,25.8-31.1,41.3
		c-7.4,15.5-11.6,32.2-12.7,50.1c-1,17.8,2,36,9,54.4l5.2,13.6c1,2.6,2.8,4.8,5.3,6.5c2.6,1.7,6,1.9,10.3,0.2l66.9-25.4
		c4.2-1.6,6.9-4.2,8.1-7.9c1.2-3.7,1.3-6.9,0.2-9.7l-5.5-14.4c-1.9-4.9-2.7-10.1-2.3-15.5c0.3-5.4,1.6-10.6,3.7-15.5
		c2.1-4.9,5.2-9.3,9-13.2c3.8-3.8,8.3-6.7,13.5-8.7c4.7-1.8,9.6-2.8,14.8-2.9c5.1-0.1,10.1,0.6,14.9,2.2c4.8,1.7,9.3,4.4,13.3,8.1
		c4,3.7,7.1,8.5,9.3,14.4c1.8,4.7,2.8,9.2,3.1,13.5c0.2,4.3-1,10-3.7,17.2l-86.6,250.3c-0.2,2.6,0.2,5.3,1.1,7.6l14.8,39.1
		c1.3,3.5,3.9,6.1,7.8,7.8c3.8,1.6,7.4,1.8,10.7,0.6l231.9-88c5.5,2.7,11,5.2,16.8,7.3c14.7,5.3,30.1,8,46.3,8
		c16.3,0.2,32.7-2.9,49.1-9.1l0.1,0.2c18-6.8,34.1-16.9,48.3-30.2c14.3-13.3,25.4-28.4,33.6-45.6c8-17.1,12.8-35.4,14.3-54.9
		C727.3,617.7,724.4,598.3,717.1,579z M630.3,639.6c-0.4,7.1-2.3,13.4-5.4,18.9c-3.1,5.5-7.2,10.2-12.4,14.2
		c-5.3,4-10.8,7.1-16.7,9.4c-5.8,2.2-12.2,2.9-19.1,1.8c-7-0.9-13.7-2.9-20.2-5.9c-6.4-3-12.1-6.6-17.2-10.8
		c-5.2-4.2-8.6-8.5-10.6-12.9c-1.7-0.8-3.1-1.4-4.1-2.1c-1.1-0.7-2.5-0.6-4.5,0.1c-1.4,0.5-2.3,1-2.7,1.4l-28.6,19.5l-112.8,42.8
		L426,583.9c3.3,12.1,6.5,24.1,9.8,36.3c2.5,5.5,5.4,8.7,8.8,9.6c3.3,1,7.2,0.6,11.8-1.2l45.6-17.3c8-2.4,14.9-5.4,20.8-8.8
		c5.8-3.4,12-7,18.6-10.7c1.4-1.1,3-2.3,4.9-3.3c1.9-1.1,4-2.1,6.5-3c7.4-2.8,14.8-4.1,22.2-4c7.5,0.2,14.6,1.7,21.3,4.5
		c6.8,2.7,12.7,6.6,17.9,11.8c5.3,5.2,9.3,11.2,11.9,18.2C629.5,624.6,630.9,632.4,630.3,639.6z"/>
	<g>
		<g>
			<path class="st3" d="M275.4,785.2c-1.3-3.4-0.1-6.3,3.5-7.7l12.7-4.8c10.5-4,20.9-0.1,24.8,10.2c4,10.5-1.6,20-11.5,23.8l-7.9,3
				l4.5,11.7c1.4,3.6-0.2,6.5-3.2,7.6c-3.1,1.2-6.1,0-7.5-3.5L275.4,785.2L275.4,785.2z M293.4,800.2l7.3-2.8
				c4.5-1.7,6.1-6.1,4.5-10.4c-1.6-4.3-5.7-6.5-10.3-4.8l-7.3,2.8L293.4,800.2z"/>
			<path class="st3" d="M322.2,790.2c-5.7-14.9,0-30.1,14.6-35.7c14.4-5.5,29.1,2.5,34.6,17c5.6,14.8,0.1,30.1-14.6,35.7
				C342.3,812.7,327.8,805,322.2,790.2z M360.3,775.7c-3.3-8.7-10.8-14.7-19.7-11.4c-8.9,3.4-10.5,12.9-7.2,21.6
				c3.3,8.7,10.6,14.8,19.7,11.4C362.2,793.9,363.6,784.5,360.3,775.7z"/>
			<path class="st3" d="M369.5,748.7c-1.1-2.9,0.1-6.1,3.4-7.3c3.1-1.2,6.1,0,7.4,3.3l5.9,15.5l10.5-25.4c0.5-1.2,1.4-2.8,3.4-3.6
				c2.7-1,6.1,0.1,7.3,3.1c0.7,1.9,0.1,3.8-1.3,7.1l-8.5,18.4l23.1,11c2.3,1.1,4.3,2.1,5.1,4.3c1.3,3.4-0.8,5.9-3.7,7.1
				c-2.1,0.8-3.9,0.1-6.7-1.3l-26.1-13l6.9,18.2c1.1,2.8-0.2,6-3.4,7.2c-3.1,1.2-6.1,0-7.3-3.1L369.5,748.7L369.5,748.7z"/>
			<path class="st3" d="M414.8,731.8c-1.4-3.6,0.2-6.5,3.2-7.6c3.1-1.2,6.1,0,7.5,3.5l15.4,40.7c1.4,3.6-0.2,6.5-3.2,7.6
				c-3.1,1.2-6.1,0-7.5-3.5L414.8,731.8z"/>
			<path class="st3" d="M433.5,724.9c-1.3-3.4,0.3-6.3,3.6-7.5l13.7-5.2c7.4-2.8,15.4-0.1,18.2,7.5c1.9,5,1.1,9.2-2.7,13l0.1,0.1
				c6.4-1.5,13.1,1.8,15.5,8c3.8,10.1-0.8,18.1-10.7,21.8l-14.7,5.6c-3.3,1.2-6.5,0.1-7.8-3.3L433.5,724.9L433.5,724.9z
				 M449.8,735.7l5.6-2.1c3.5-1.3,5-4.3,3.7-7.9c-1.3-3.4-4.6-4.1-7.7-2.9l-5.6,2.1L449.8,735.7z M457.9,757l8.4-3.2
				c3.9-1.5,5.9-4.8,4.4-8.8c-1.3-3.4-4.7-4.7-9.7-2.8l-7.6,2.9L457.9,757z"/>
		</g>
	</g>
</g>
</svg>
