<?xml version="1.0" encoding="UTF-8"?> <svg xmlns="http://www.w3.org/2000/svg" width="155" height="64" viewBox="0 0 155 64"><g id="Layer_1" data-name="Layer 1" transform="translate(-37.125 -138.086)"><path id="Path_1" data-name="Path 1" d="M536.958,257.222a30.521,30.521,0,0,1-2,11.3,20.036,20.036,0,0,1-5.363,8.081,10.844,10.844,0,0,1-7.152,2.932h-.286l1-25.1.715-19.309c.143.071.358.071.5.143l.286,1.645v12.8l1.144,7.151h11.156Zm0,0ZM520.51,279.391a12.322,12.322,0,0,1-5.292-2.646,18.377,18.377,0,0,1-5.435-7.723,28.773,28.773,0,0,1-2.074-11.013v-1.144h1.859l1.645,5.22a7.51,7.51,0,0,0,.572,1.645c.286.429.715.572,1,.143a2.931,2.931,0,0,0,.5-1.216l1.645-4.792,1.216,2.36a6.791,6.791,0,0,0,.715,1.216.712.712,0,0,0,.286.358.569.569,0,0,0,.715-.143,4.8,4.8,0,0,0,.5-1.216l.715-2.861Zm0,0ZM507.78,255.72h2.646l1.931,6.079L514,256.864a1.949,1.949,0,0,1,.429-.858.65.65,0,0,1,.715,0c.214.286.429.644.644.929l1.5,2.932,1.287-5.221a2.708,2.708,0,0,1,.429-.93c.071-.143.215-.143.429-.143.286,0,.5.358.572.715a21.673,21.673,0,0,1,.143,2.217l1.073,16.091,1.5-37.616h-.715a9.364,9.364,0,0,0-5.507,1.788,16.1,16.1,0,0,0-4.577,4.934,27.843,27.843,0,0,0-3.075,7.366A33.129,33.129,0,0,0,507.78,255.72Zm0,0Zm17.807-20.1.214,1.144v12.8l1,6.15h10.155a31.074,31.074,0,0,0-2.074-9.869,19.721,19.721,0,0,0-5.507-8.01A12.214,12.214,0,0,0,525.587,235.625Z" transform="translate(-375.606 -77.448)" fill="#df2803" fill-rule="evenodd"></path><path id="Path_2" data-name="Path 2" d="M46.319,148.526l3.519-7.437h3.3v.93H51.921v8.867h1.221v.858H48.689v-.858h1.149v-7.58l-3.519,7.508H45.241l-3.591-7.508v7.58h1.221v.858H39.639v-.858H40.86v-8.867H39.639v-.93h3.232Zm0,0Zm-.144,52.087s-8.331.042-8.978.042v-2.574c1.436,0,2.3-.786,2.729-2.36a24.606,24.606,0,0,0,.647-6.436V163.4a3.6,3.6,0,0,0-3.448-2v-2.217h9.194l7.541,28.6,7.111-28.6,30.1,0v10.51h-1.58a19.733,19.733,0,0,0-1.293-4.648,5.566,5.566,0,0,0-1.867-2.288,6.7,6.7,0,0,0-3.16-.644H81.226c-1.221,0-1.8.572-1.8,1.859V177.7a4.2,4.2,0,0,0,3.663-1.5q1.185-1.5,1.724-5.578H86.4c-.072,3.432-.144,6.15-.144,8.009,0,2,.072,4.934.144,8.652H84.961c-.431-2.789-1.006-4.577-1.724-5.506a5.068,5.068,0,0,0-3.807-1.43v11.084c0,4.076,1.437,6.15,4.31,6.15,2.37,0,4.094-.644,5.172-2.074,1.077-1.358,1.8-3.861,2.227-7.365h1.437v9.94h.215a3.434,3.434,0,0,0,2.442-1.144c.5-.644.718-2,.718-4.147V167.118a14.231,14.231,0,0,0-.287-3.361,3.025,3.025,0,0,0-1.077-1.645,5.119,5.119,0,0,0-2.155-.644v-2.288h10.415a16.637,16.637,0,0,1,2.945.143,11.324,11.324,0,0,1,7.111,2.932,18.389,18.389,0,0,1,4.669,7.508,33.347,33.347,0,0,1,1.58,10.869q0,2.038-.215,4.29a24.235,24.235,0,0,1-2.8,9.439A11.548,11.548,0,0,1,110.6,199.8a13.044,13.044,0,0,1-4.741.858h-48.7V198.3a3.031,3.031,0,0,0,2.729-1.216c.5-.858.718-2.5.718-5.006v-22.6l-7.829,31.178H50.915l-8.26-32.036v20.666a30.334,30.334,0,0,0,.574,6.793,2.75,2.75,0,0,0,2.945,2.217v2.318Zm-8.978.042Zm32.322-39.186a.916.916,0,0,0-.431.071,2.377,2.377,0,0,0-1.8,1.216c-.5.858-.79,2.5-.79,4.934v25.1a11.114,11.114,0,0,0,.431,3.432,2.573,2.573,0,0,0,.574,1.073,2.741,2.741,0,0,0,1.652.786,10.166,10.166,0,0,0,1.508-.071,2.728,2.728,0,0,0,1.939-1.573c.5-1.073.718-3.075.718-6.007V167.118a9.639,9.639,0,0,0-.79-4.577,1.87,1.87,0,0,0-1.293-.93A2.865,2.865,0,0,0,69.518,161.469Zm0,0ZM102.2,191.288a11.43,11.43,0,0,0,.574,4.291,2.618,2.618,0,0,0,1.149,1.573,4.139,4.139,0,0,0,2.658.429c1.724-.286,3.089-1.645,3.95-4.147a29.505,29.505,0,0,0,1.652-10.011c0-.715.072-1.931.072-3.718,0-7.795-1.149-12.943-3.448-15.589a7.547,7.547,0,0,0-5.028-2.217,1.375,1.375,0,0,0-1.58,1.573Zm0,0Zm30.167,9.367v-2.574a5.2,5.2,0,0,1-2.155-.572,2.72,2.72,0,0,1-1.149-1.788,12.4,12.4,0,0,1-.359-3.647V167.118c0-2,.215-3.361.79-4.148a2.828,2.828,0,0,1,2.658-1.216h.216v-2.574H118.791v2.574h.287a3.139,3.139,0,0,1,2.729,1c.431.715.646,2.145.646,4.362v24.956a16.406,16.406,0,0,1-.287,3.79,2.241,2.241,0,0,1-1.077,1.645,5.318,5.318,0,0,1-2.3.572v2.57l13.3,0Zm-13.575,0Zm59.974,0v-2.574a4.729,4.729,0,0,0,2.227-.429,2.569,2.569,0,0,0,1.077-1.716,17.516,17.516,0,0,0,.287-3.861V180.991h-11.42v11.084c0,2.36.216,3.933.718,4.791a3.363,3.363,0,0,0,2.945,1.216v2.574H161.168v-2.574c1.509,0,2.442-.358,2.873-1.144.5-.715.718-2.36.718-4.862V167.118c0-2.145-.287-3.647-.79-4.291a3.205,3.205,0,0,0-2.8-1.073v-2.574H174.6v2.574a3.082,3.082,0,0,0-2.8,1.216,7.441,7.441,0,0,0-.862,4.148v10.655h11.42V167.118a13.7,13.7,0,0,0-.287-3.5,2.181,2.181,0,0,0-1.005-1.5,5.885,5.885,0,0,0-2.3-.358v-2.574h13.36v2.574a3.205,3.205,0,0,0-2.8,1.073c-.5.715-.79,2.145-.79,4.291v24.956a15.4,15.4,0,0,0,.287,3.647,2.747,2.747,0,0,0,1.077,1.788,3.562,3.562,0,0,0,2.227.572v2.574Zm-17.6,0ZM57.6,142.162v3.5h3.16v-1.144h.79v3.146h-.79V146.6H57.6v4.076h4.094v-1.144h.718v2.217H54.363v-.858h1.149v-8.867H54.363v-.93h7.829v2.145H61.33v-1.073Zm0,0Zm11.349-1.073,3.376,9.8h1.149v3.361h-1.58v-2.5H64.562v2.5h-1.58v-3.361h1.149l3.16-8.867H66.142v-.93h2.8Zm0,0Zm-1.365,2.717-2.442,6.865h4.884l-2.155-6.865-.072-.5h-.072Zm0,0Zm9.768,5.006,4.381-6.436v-.358H80.58v-.93H85.1v.93H83.883v8.867H85.1v.858H80.58v-.858h1.149v-7.008l-4.381,6.436v.572h1.221v.858H74.044v-.858h1.221v-8.867H74.044v-.93h4.525v.93H77.347Zm0,0Zm15.3-2.431v-4.362H91.5v-.93H95.95v.93H94.8v8.867H95.95v.858H91.5v-.858h1.149v-3.576a10.193,10.193,0,0,1-2.8.572c-2.011,0-3.017-.858-3.017-2.645v-3.218H85.823v-.93h4.31v.93H88.983v3.146c0,1.144.5,1.716,1.365,1.788a7.2,7.2,0,0,0,1.149-.143C91.928,146.667,92.287,146.524,92.646,146.381Zm0,0Zm7.829.214v4.291H101.7v.858H97.171v-.858h1.149v-8.867H97.171v-.93H101.7v.93h-1.221v3.647H105v-3.647h-1.149v-.93H108.3v.93h-1.149v8.867H108.3v.858h-4.453v-.858H105V146.6Zm0,0Zm12.354,2.217,4.381-6.436v-.358h-1.077v-.93h4.453v.93h-1.221v8.867h1.221v.858h-4.453v-.858h1.077v-7.008l-4.381,6.436v.572h1.221v.858h-4.525v-.858h1.221v-8.867h-1.221v-.93h4.525v.93h-1.221Zm0,0Zm12.21,0,4.382-6.436v-.358h-1.149v-.93h4.453v.93h-1.149v8.867h1.149v.858h-4.453v-.858h1.149v-7.008l-4.382,6.436v.572h1.221v.858h-4.525v-.858h1.221v-8.867h-1.221v-.93h4.525v.93H125.04Zm0,0Zm2.227-8.867a4.82,4.82,0,0,1-1.868-.358c-.574-.214-.79-.715-.79-1.5h1.58v.358c0,.5.359.786,1.006.786.575,0,.862-.143,1.005-.357a.979.979,0,0,0,.072-.786h1.58C129.924,139.3,129.062,139.945,127.266,139.945Zm0,0Zm15.011,10.726h4.31v-8.652h-1.149v-.93h4.525v.93h-1.221v8.867h1.365v3.361h-1.724v-2.5h-9.409v-.858h1.149v-8.867h-1.149v-.93H143.5v.93h-1.221Zm0,0Zm12.138-8.51v3.5h3.16v-1.144h.79v3.146h-.79V146.6h-3.16v4.076h4.022v-1.144h.79v2.217h-8.116v-.858h1.221v-8.867h-1.221v-.93h7.829v2.145h-.79v-1.073Zm0,0Zm9.337,4.433v4.291H164.9v.858h-4.525v-.858H161.6v-8.867h-1.221v-.93H164.9v.93h-1.149v3.647h4.454v-3.647h-1.149v-.93h4.453v.93h-1.149v8.867h1.149v.858h-4.453v-.858h1.149V146.6Zm0,0Zm13.072,5.149h-2.3v-.858h1.221v-8.867h-2.442v1.144h-.934v-2.074h8.834v2.074h-.934v-1.144H177.9v8.867h1.149v.858h-2.227Zm0,0Zm8.547-4.076v3.218h1.149v.858H182v-.858h1.221v-8.867H182v-.93H185.8a6.28,6.28,0,0,1,3.017.644q1.293.536,1.293,2.574a4.147,4.147,0,0,1-.215,1.358,3,3,0,0,1-.79,1.144,3.862,3.862,0,0,1-1.437.715A7.432,7.432,0,0,1,185.373,147.668Zm0,0Zm0-.786a2.839,2.839,0,0,0,1.077-.071,2.384,2.384,0,0,0,1.149-.787,2.572,2.572,0,0,0,.359-1.788,1.929,1.929,0,0,0-.79-1.859,2.91,2.91,0,0,0-1.8-.358Z" transform="translate(0 0)" fill="#b0b3b8" fill-rule="evenodd"></path></g></svg> 